<?xml version="1.0" encoding="UTF-8"?>
<!DOCTYPE svg PUBLIC "-//W3C//DTD SVG 1.1//EN" "http://www.w3.org/Graphics/SVG/1.1/DTD/svg11.dtd">
<!-- Creator: CorelDRAW X6 -->
<svg xmlns="http://www.w3.org/2000/svg" xml:space="preserve" width="7.47222in" height="7.47222in" version="1.1" style="shape-rendering:geometricPrecision; text-rendering:geometricPrecision; image-rendering:optimizeQuality; fill-rule:evenodd; clip-rule:evenodd"
viewBox="0 0 7472 7472"
 xmlns:xlink="http://www.w3.org/1999/xlink">
 <defs>
  <style type="text/css">
   <![CDATA[
    .fil1 {fill:#3369B1;fill-rule:nonzero}
    .fil3 {fill:#373435;fill-rule:nonzero}
    .fil22 {fill:#3D68AB;fill-rule:nonzero}
    .fil2 {fill:#479FD7;fill-rule:nonzero}
    .fil23 {fill:#DEDFDE;fill-rule:nonzero}
    .fil24 {fill:#E1E0DE;fill-rule:nonzero}
    .fil25 {fill:#E1E0E0;fill-rule:nonzero}
    .fil26 {fill:#E1E2E1;fill-rule:nonzero}
    .fil27 {fill:#E3E3E1;fill-rule:nonzero}
    .fil28 {fill:#E3E3E3;fill-rule:nonzero}
    .fil29 {fill:#E3E4E4;fill-rule:nonzero}
    .fil30 {fill:#E6E5E4;fill-rule:nonzero}
    .fil31 {fill:#E6E5E5;fill-rule:nonzero}
    .fil32 {fill:#E6E7E7;fill-rule:nonzero}
    .fil4 {fill:#EAE9E6;fill-rule:nonzero}
    .fil5 {fill:#EAEAE9;fill-rule:nonzero}
    .fil6 {fill:#EAEAEA;fill-rule:nonzero}
    .fil7 {fill:#EDEBEA;fill-rule:nonzero}
    .fil8 {fill:#EDEDEB;fill-rule:nonzero}
    .fil10 {fill:#EEEEEE;fill-rule:nonzero}
    .fil9 {fill:#EFEEEC;fill-rule:nonzero}
    .fil12 {fill:#F1F1F0;fill-rule:nonzero}
    .fil11 {fill:#F2F0EF;fill-rule:nonzero}
    .fil13 {fill:#F2F3F2;fill-rule:nonzero}
    .fil15 {fill:#F3F4F4;fill-rule:nonzero}
    .fil14 {fill:#F4F4F2;fill-rule:nonzero}
    .fil16 {fill:#F7F5F5;fill-rule:nonzero}
    .fil17 {fill:#F7F7F6;fill-rule:nonzero}
    .fil18 {fill:#F7F7F8;fill-rule:nonzero}
    .fil19 {fill:#F9F8F8;fill-rule:nonzero}
    .fil21 {fill:#F9FCFE;fill-rule:nonzero}
    .fil20 {fill:#FAFCFA;fill-rule:nonzero}
    .fil0 {fill:#FEFEFE;fill-rule:nonzero}
   ]]>
  </style>
   <clipPath id="id0" style="clip-rule:nonzero">
    <path d="M3735 3884l-1349 0 -2 0 1354 -564 0 563 -3 1 0 0z"/>
   </clipPath>
   <clipPath id="id1" style="clip-rule:nonzero">
    <path d="M3738 3883l0 -563 79 -33 1314 0 -1391 595 -2 1 0 0z"/>
   </clipPath>
   <clipPath id="id2" style="clip-rule:nonzero">
    <path d="M2429 4443l-45 -558 2 0 45 557 -2 1 0 0z"/>
   </clipPath>
 </defs>
 <g id="Layer_x0020_1">
  <metadata id="CorelCorpID_0Corel-Layer"/>
  <polygon class="fil0" points="0,7472 7480,7472 7480,-8 0,-8 "/>
  <polygon class="fil1" points="5632,6484 3740,6994 1848,6484 1412,1755 6069,1755 "/>
  <polygon class="fil2" points="3740,2138 3740,6587 3744,6589 5275,6176 5629,2138 "/>
  <polygon class="fil3" points="2666,1060 2666,778 3077,778 3077,470 2358,470 2358,1341 3077,1341 3077,1060 "/>
  <path class="fil3" d="M3816 778l287 0 0 -308 -719 0c0,0 0,155 0,308 96,96 146,142 285,281 -81,0 -285,0 -285,0l0 281 719 0 0 -281 -287 -282z"/>
  <path class="fil3" d="M4835 778l287 0 0 -308 -719 0c0,0 0,155 0,308 96,96 146,142 285,281 -81,0 -285,0 -285,0l0 281 719 0 0 -281 -287 -282z"/>
  <polygon class="fil0" points="3738,3320 2384,3884 2429,4443 3738,3883 5131,3288 5189,2716 "/>
  <g style="clip-path:url(#id0)">
   <image transform="matrix(99.0138 0 0 41.9174 -367554 -152715)" x="3736" y="3722" width="14" height="14" xlink:href="p1dddu6ink1l04107g13sf1glpn4f4_Images\p1dddu6ink1l04107g13sf1glpn4f4_ImgID1.png"/>
  </g>
  <g style="clip-path:url(#id1)">
   <image transform="matrix(101.814 0 0 44.3172 -376661 -161681)" x="3736" y="3722" width="14" height="14" xlink:href="p1dddu6ink1l04107g13sf1glpn4f4_Images\p1dddu6ink1l04107g13sf1glpn4f4_ImgID2.png"/>
  </g>
  <polygon class="fil4" points="2471,4757 2470,4757 "/>
  <polygon class="fil4" points="2481,4757 2471,4757 "/>
  <polygon class="fil4" points="2492,4757 2481,4757 "/>
  <polygon class="fil4" points="2502,4757 2492,4757 "/>
  <polygon class="fil4" points="2513,4757 2502,4757 "/>
  <polygon class="fil4" points="2523,4757 2513,4757 "/>
  <polygon class="fil5" points="2534,4757 2523,4757 "/>
  <polygon class="fil5" points="2544,4757 2534,4757 "/>
  <polygon class="fil5" points="2555,4757 2544,4757 "/>
  <polygon class="fil5" points="2565,4757 2555,4757 "/>
  <polygon class="fil5" points="2576,4757 2565,4757 "/>
  <polygon class="fil5" points="2587,4757 2576,4757 "/>
  <polygon class="fil5" points="2597,4757 2587,4757 "/>
  <polygon class="fil5" points="2608,4757 2597,4757 "/>
  <polygon class="fil5" points="2618,4757 2608,4757 "/>
  <polygon class="fil5" points="2629,4757 2618,4757 "/>
  <polygon class="fil5" points="2639,4757 2629,4757 "/>
  <polygon class="fil5" points="2650,4757 2639,4757 "/>
  <polygon class="fil5" points="2660,4757 2650,4757 "/>
  <polygon class="fil5" points="2671,4757 2660,4757 "/>
  <polygon class="fil5" points="2681,4757 2671,4757 "/>
  <polygon class="fil5" points="2692,4757 2681,4757 "/>
  <polygon class="fil5" points="2702,4757 2692,4757 "/>
  <polygon class="fil5" points="2713,4757 2702,4757 "/>
  <polygon class="fil5" points="2723,4757 2713,4757 "/>
  <polygon class="fil5" points="2734,4757 2723,4757 "/>
  <polygon class="fil5" points="2744,4757 2734,4757 "/>
  <polygon class="fil5" points="2755,4757 2744,4757 "/>
  <polygon class="fil5" points="2766,4757 2755,4757 "/>
  <polygon class="fil5" points="2776,4757 2766,4757 "/>
  <polygon class="fil5" points="2787,4757 2776,4757 "/>
  <polygon class="fil5" points="2797,4757 2787,4757 "/>
  <polygon class="fil5" points="2808,4757 2797,4757 "/>
  <polygon class="fil5" points="2818,4757 2808,4757 "/>
  <polygon class="fil6" points="2829,4757 2818,4757 "/>
  <polygon class="fil6" points="2839,4757 2829,4757 "/>
  <polygon class="fil7" points="2850,4757 2839,4757 "/>
  <polygon class="fil7" points="2860,4757 2850,4757 "/>
  <polygon class="fil7" points="2871,4757 2860,4757 "/>
  <polygon class="fil7" points="2881,4757 2871,4757 "/>
  <polygon class="fil7" points="2892,4757 2881,4757 "/>
  <polygon class="fil7" points="2902,4757 2892,4757 "/>
  <polygon class="fil7" points="2913,4757 2902,4757 "/>
  <polygon class="fil7" points="2923,4757 2913,4757 "/>
  <polygon class="fil7" points="2934,4757 2923,4757 "/>
  <polygon class="fil7" points="2945,4757 2934,4757 "/>
  <polygon class="fil7" points="2955,4757 2945,4757 "/>
  <polygon class="fil7" points="2966,4757 2955,4757 "/>
  <polygon class="fil7" points="2976,4757 2966,4757 "/>
  <polygon class="fil8" points="2987,4757 2976,4757 "/>
  <polygon class="fil8" points="2997,4757 2987,4757 "/>
  <polygon class="fil8" points="3008,4757 2997,4757 "/>
  <polygon class="fil8" points="3018,4757 3008,4757 "/>
  <polygon class="fil8" points="3029,4757 3018,4757 "/>
  <polygon class="fil8" points="3039,4757 3029,4757 "/>
  <polygon class="fil8" points="3050,4757 3039,4757 "/>
  <polygon class="fil8" points="3060,4783 3060,4758 3060,4757 3050,4757 3058,4757 "/>
  <polygon class="fil8" points="3071,4909 3071,4884 3060,4757 3060,4782 "/>
  <polygon class="fil8" points="3081,5035 3081,5010 3071,4884 3071,4909 "/>
  <polygon class="fil8" points="3092,5161 3092,5137 3081,5010 3081,5035 "/>
  <polygon class="fil8" points="3102,5221 3102,5220 3099,5219 3092,5136 3092,5161 3097,5219 "/>
  <polygon class="fil9" points="3113,5223 3113,5223 3102,5220 3102,5221 "/>
  <polygon class="fil9" points="3123,5226 3123,5225 3113,5223 3113,5223 "/>
  <polygon class="fil9" points="3134,5229 3134,5228 3123,5225 3123,5226 "/>
  <polygon class="fil9" points="3145,5231 3145,5231 3134,5228 3134,5229 "/>
  <polygon class="fil9" points="3155,5234 3155,5233 3145,5231 3145,5231 "/>
  <polygon class="fil9" points="3166,5237 3166,5236 3155,5233 3155,5234 "/>
  <polygon class="fil9" points="3176,5239 3176,5239 3166,5236 3166,5237 "/>
  <polygon class="fil9" points="3187,5242 3187,5241 3176,5239 3176,5239 "/>
  <polygon class="fil9" points="3197,5245 3197,5244 3187,5241 3187,5242 "/>
  <polygon class="fil9" points="3208,5247 3208,5247 3197,5244 3197,5245 "/>
  <polygon class="fil9" points="3218,5250 3218,5249 3208,5247 3208,5247 "/>
  <polygon class="fil9" points="3229,5253 3229,5252 3218,5249 3218,5250 "/>
  <polygon class="fil9" points="3239,5255 3239,5255 3229,5252 3229,5253 "/>
  <polygon class="fil9" points="3250,5258 3250,5257 3239,5255 3239,5255 "/>
  <polygon class="fil9" points="3260,5261 3260,5260 3250,5257 3250,5258 "/>
  <polygon class="fil9" points="3271,5263 3271,5263 3260,5260 3260,5261 "/>
  <polygon class="fil10" points="3281,5266 3281,5265 3271,5263 3271,5263 "/>
  <polygon class="fil10" points="3292,5268 3292,5268 3281,5265 3281,5266 "/>
  <polygon class="fil10" points="3302,5271 3302,5271 3292,5268 3292,5268 "/>
  <polygon class="fil10" points="3313,5274 3313,5273 3302,5271 3302,5271 "/>
  <polygon class="fil10" points="3324,5276 3324,5276 3313,5273 3313,5274 "/>
  <polygon class="fil10" points="3334,5279 3334,5279 3324,5276 3324,5276 "/>
  <polygon class="fil10" points="3345,5282 3345,5281 3334,5279 3334,5279 "/>
  <polygon class="fil10" points="3355,5284 3355,5284 3345,5281 3345,5282 "/>
  <polygon class="fil10" points="3366,5287 3366,5287 3355,5284 3355,5284 "/>
  <polygon class="fil10" points="3376,5290 3376,5289 3366,5287 3366,5287 "/>
  <polygon class="fil10" points="3387,5292 3387,5292 3376,5289 3376,5290 "/>
  <polygon class="fil10" points="3397,5295 3397,5295 3387,5292 3387,5292 "/>
  <polygon class="fil10" points="3408,5298 3408,5297 3397,5295 3397,5295 "/>
  <polygon class="fil10" points="3418,5300 3418,5300 3408,5297 3408,5298 "/>
  <polygon class="fil10" points="3429,5303 3429,5303 3418,5300 3418,5300 "/>
  <polygon class="fil10" points="3439,5306 3439,5305 3429,5303 3429,5303 "/>
  <polygon class="fil10" points="3450,5308 3450,5308 3439,5305 3439,5306 "/>
  <polygon class="fil10" points="3460,5311 3460,5310 3450,5308 3450,5308 "/>
  <polygon class="fil10" points="3471,5314 3471,5313 3460,5310 3460,5311 "/>
  <polygon class="fil10" points="3481,5316 3481,5316 3471,5313 3471,5314 "/>
  <polygon class="fil10" points="3492,5319 3492,5318 3481,5316 3481,5316 "/>
  <polygon class="fil10" points="3503,5322 3503,5321 3492,5318 3492,5319 "/>
  <polygon class="fil11" points="3513,5324 3513,5324 3503,5321 3503,5322 "/>
  <polygon class="fil11" points="3524,5327 3524,5326 3513,5324 3513,5324 "/>
  <polygon class="fil11" points="3534,5330 3534,5329 3524,5326 3524,5327 "/>
  <polygon class="fil11" points="3545,5332 3545,5332 3534,5329 3534,5330 "/>
  <polygon class="fil11" points="3555,5335 3555,5334 3545,5332 3545,5332 "/>
  <polygon class="fil11" points="3566,5338 3566,5337 3555,5334 3555,5335 "/>
  <polygon class="fil11" points="3576,5340 3576,5340 3566,5337 3566,5338 "/>
  <polygon class="fil11" points="3587,5343 3587,5342 3576,5340 3576,5340 "/>
  <polygon class="fil11" points="3597,5346 3597,5345 3587,5342 3587,5343 "/>
  <polygon class="fil11" points="3608,5348 3608,5348 3597,5345 3597,5346 "/>
  <polygon class="fil11" points="3618,5351 3618,5350 3608,5348 3608,5348 "/>
  <polygon class="fil11" points="3629,5354 3629,5353 3618,5350 3618,5351 "/>
  <polygon class="fil11" points="3639,5356 3639,5356 3629,5353 3629,5354 "/>
  <polygon class="fil11" points="3650,5359 3650,5358 3639,5356 3639,5356 "/>
  <polygon class="fil11" points="3660,5362 3660,5361 3650,5358 3650,5359 "/>
  <polygon class="fil11" points="3671,5364 3671,5364 3660,5361 3660,5362 "/>
  <polygon class="fil11" points="3682,5367 3682,5366 3671,5364 3671,5364 "/>
  <polygon class="fil11" points="3692,5370 3692,5369 3682,5366 3682,5367 "/>
  <polygon class="fil11" points="3703,5372 3703,5372 3692,5369 3692,5370 "/>
  <polygon class="fil11" points="3713,5375 3713,5374 3703,5372 3703,5372 "/>
  <polygon class="fil11" points="3724,5377 3724,5377 3713,5374 3713,5375 "/>
  <polygon class="fil12" points="3724,5377 3724,5377 3732,5380 3732,5380 3733,5379 "/>
  <path class="fil12" d="M3745 6001l0 -624 -5 1 -2 0 0 623 2 0 0 0 4 -1zm0 -1554l0 -563 -5 0 -2 0 0 562 2 0 5 0zm-6 -563l-3 0 -1 0"/>
  <path class="fil12" d="M3755 5998l0 -624 -11 3 0 624 11 -3zm0 -1551l0 -563 -11 0 0 563 11 0z"/>
  <path class="fil12" d="M3766 5995l0 -624 -11 3 0 624 11 -3zm0 -1548l0 -563 -11 0 0 563 11 0z"/>
  <path class="fil12" d="M3776 5992l0 -624 -11 3 0 624 11 -3zm0 -1545l0 -563 -11 0 0 563 11 0z"/>
  <path class="fil12" d="M3787 5989l0 -624 -11 3 0 624 11 -3zm0 -1542l0 -563 -11 0 0 563 11 0z"/>
  <path class="fil12" d="M3797 5986l0 -624 -11 3 0 624 11 -3zm0 -1538l0 -563 -11 0 0 563 11 0z"/>
  <path class="fil12" d="M3808 5982l0 -624 -11 3 0 624 11 -3zm0 -1535l0 -563 -11 0 0 563 11 0z"/>
  <path class="fil12" d="M3818 5979l0 -623 -11 3 0 624 11 -3zm0 -1532l0 -563 -11 0 0 563 11 0z"/>
  <path class="fil12" d="M3829 5976l0 -623 -11 3 0 623 11 -3zm0 -1529l0 -563 -11 0 0 563 11 0z"/>
  <path class="fil12" d="M3839 5973l0 -623 -11 3 0 623 11 -3zm0 -1526l0 -563 -11 0 0 563 11 0z"/>
  <path class="fil12" d="M3850 5970l0 -623 -11 3 0 623 11 -3zm0 -1523l0 -563 -11 0 0 563 11 0z"/>
  <path class="fil13" d="M3861 5967l0 -623 -11 3 0 623 11 -3zm0 -1520l0 -563 -11 0 0 563 11 0z"/>
  <path class="fil13" d="M3871 5964l0 -623 -11 3 0 623 11 -3zm0 -1517l0 -563 -11 0 0 563 11 0z"/>
  <path class="fil13" d="M3882 5961l0 -623 -11 3 0 623 11 -3zm0 -1514l0 -563 -11 0 0 563 11 0z"/>
  <path class="fil13" d="M3892 5958l0 -623 -11 3 0 623 11 -3zm0 -1511l0 -563 -11 0 0 563 11 0z"/>
  <path class="fil13" d="M3903 5955l0 -623 -11 3 0 623 11 -3zm0 -1507l0 -563 -11 0 0 563 11 0z"/>
  <path class="fil14" d="M3913 5952l0 -622 -11 3 0 623 11 -3zm0 -1504l0 -563 -11 0 0 563 11 0z"/>
  <path class="fil14" d="M3924 5949l0 -622 -11 3 0 622 11 -3zm0 -1501l0 -563 -11 0 0 563 11 0z"/>
  <path class="fil14" d="M3934 5946l0 -622 -11 3 0 622 11 -3zm0 -1498l0 -563 -11 0 0 563 11 0z"/>
  <path class="fil14" d="M3945 5942l0 -622 -11 3 0 622 11 -3zm0 -1495l0 -563 -11 0 0 563 11 0z"/>
  <path class="fil14" d="M3955 5939l0 -622 -11 3 0 622 11 -3zm0 -1492l0 -563 -11 0 0 563 11 0z"/>
  <path class="fil14" d="M3966 5936l0 -622 -11 3 0 622 11 -3zm0 -1489l0 -563 -11 0 0 563 11 0z"/>
  <path class="fil14" d="M3976 5933l0 -622 -11 3 0 622 11 -3zm0 -1486l0 -563 -11 0 0 563 11 0z"/>
  <path class="fil14" d="M3987 5930l0 -622 -11 3 0 622 11 -3zm0 -1483l0 -563 -11 0 0 563 11 0z"/>
  <path class="fil14" d="M3997 5927l0 -622 -11 3 0 622 11 -3zm0 -1479l0 -563 -11 0 0 563 11 0z"/>
  <path class="fil14" d="M4008 5924l0 -622 -11 3 0 622 11 -3zm0 -1476l0 -563 -11 0 0 563 11 0z"/>
  <path class="fil14" d="M4018 5921l0 -621 -11 3 0 622 11 -3zm0 -1473l0 -563 -11 0 0 563 11 0z"/>
  <path class="fil14" d="M4029 5918l0 -621 -11 3 0 621 11 -3zm0 -1470l0 -563 -11 0 0 563 11 0z"/>
  <path class="fil15" d="M4039 5915l0 -621 -11 3 0 621 11 -3zm0 -1467l0 -563 -11 0 0 563 11 0z"/>
  <path class="fil15" d="M4050 5912l0 -621 -11 3 0 621 11 -3zm0 -1464l0 -563 -11 0 0 563 11 0z"/>
  <path class="fil15" d="M4061 5909l0 -621 -11 3 0 621 11 -3zm0 -1461l0 -564 -11 0 0 563 11 0z"/>
  <path class="fil15" d="M4071 5906l0 -621 -11 3 0 621 11 -3zm0 -1458l0 -564 -11 0 0 564 11 0z"/>
  <path class="fil15" d="M4082 5903l0 -621 -11 3 0 621 11 -3zm0 -1455l0 -564 -11 0 0 564 11 0z"/>
  <path class="fil15" d="M4092 5899l0 -621 -11 3 0 621 11 -3zm0 -1451l0 -564 -11 0 0 564 11 0z"/>
  <path class="fil15" d="M4103 5896l0 -621 -11 3 0 621 11 -3zm0 -1448l0 -564 -11 0 0 564 11 0z"/>
  <path class="fil15" d="M4113 5893l0 -620 -11 3 0 621 11 -3zm0 -1445l0 -564 -11 0 0 564 11 0z"/>
  <path class="fil15" d="M4124 5890l0 -620 -11 3 0 620 11 -3zm0 -1442l0 -564 -11 0 0 564 11 0z"/>
  <path class="fil15" d="M4134 5887l0 -620 -11 3 0 620 11 -3zm0 -1439l0 -564 -11 0 0 564 11 0z"/>
  <path class="fil15" d="M4145 5884l0 -620 -11 3 0 620 11 -3zm0 -1436l0 -564 -11 0 0 564 11 0z"/>
  <path class="fil15" d="M4155 5881l0 -620 -11 3 0 620 11 -3zm0 -1433l0 -564 -11 0 0 564 11 0z"/>
  <path class="fil15" d="M4166 5878l0 -620 -11 3 0 620 11 -3zm0 -1430l0 -564 -11 0 0 564 11 0z"/>
  <path class="fil16" d="M4176 5875l0 -620 -11 3 0 620 11 -3zm0 -1427l0 -564 -11 0 0 564 11 0z"/>
  <path class="fil16" d="M4187 5872l0 -620 -11 3 0 620 11 -3zm0 -1424l0 -564 -11 0 0 564 11 0z"/>
  <path class="fil16" d="M4197 5869l0 -620 -11 3 0 620 11 -3zm0 -1420l0 -564 -11 0 0 564 11 0z"/>
  <path class="fil16" d="M4208 5866l0 -619 -11 3 0 620 11 -3zm0 -1417l0 -564 -11 0 0 564 11 0z"/>
  <path class="fil16" d="M4218 5863l0 -619 -11 3 0 619 11 -3zm0 -1414l0 -564 -11 0 0 564 11 0z"/>
  <path class="fil16" d="M4229 5860l0 -619 -11 3 0 619 11 -3zm0 -1411l0 -564 -11 0 0 564 11 0z"/>
  <path class="fil16" d="M4240 5856l0 -619 -11 3 0 619 11 -3zm0 -1408l0 -564 -11 0 0 564 11 0z"/>
  <path class="fil16" d="M4250 5853l0 -619 -11 3 0 619 11 -3zm0 -1405l0 -564 -11 0 0 564 11 0z"/>
  <path class="fil16" d="M4261 5850l0 -619 -11 3 0 619 11 -3zm0 -1402l0 -564 -11 0 0 564 11 0z"/>
  <path class="fil16" d="M4271 5847l0 -619 -11 3 0 619 11 -3zm0 -1399l0 -564 -11 0 0 564 11 0z"/>
  <path class="fil16" d="M4282 5844l0 -619 -11 3 0 619 11 -3zm0 -1396l0 -564 -11 0 0 564 11 0z"/>
  <path class="fil16" d="M4292 5841l0 -619 -11 3 0 619 11 -3zm0 -1392l0 -564 -11 0 0 564 11 0z"/>
  <path class="fil16" d="M4303 5838l0 -618 -11 3 0 619 11 -3zm0 -1389l0 -564 -11 0 0 564 11 0z"/>
  <path class="fil16" d="M4313 5835l0 -618 -11 3 0 618 11 -3zm0 -1386l0 -564 -11 0 0 564 11 0z"/>
  <path class="fil16" d="M4324 5832l0 -618 -11 3 0 618 11 -3zm0 -1383l0 -564 -11 0 0 564 11 0z"/>
  <path class="fil16" d="M4334 5829l0 -618 -11 3 0 618 11 -3zm0 -1380l0 -564 -11 0 0 564 11 0z"/>
  <path class="fil16" d="M4345 5826l0 -618 -11 3 0 618 11 -3zm0 -1377l0 -564 -11 0 0 564 11 0z"/>
  <path class="fil16" d="M4355 5823l0 -618 -11 3 0 618 11 -3zm0 -1374l0 -564 -11 0 0 564 11 0z"/>
  <path class="fil16" d="M4366 5820l0 -618 -11 3 0 618 11 -3zm0 -1371l0 -564 -11 0 0 564 11 0z"/>
  <path class="fil16" d="M4376 5816l0 -618 -11 3 0 618 11 -3zm0 -1368l0 -565 -11 0 0 564 11 0z"/>
  <path class="fil16" d="M4387 5813l0 -618 -11 3 0 618 11 -3zm0 -1364l0 -565 -11 0 0 565 11 0z"/>
  <path class="fil17" d="M4397 5810l0 -655 -2 38 -8 2 0 618 11 -3zm0 -1361l0 -565 -11 0 0 565 11 0z"/>
  <path class="fil17" d="M4408 5807l0 -826 -11 174 0 655 11 -3zm0 -1358l0 -565 -11 0 0 565 11 0z"/>
  <path class="fil17" d="M4419 5804l0 -998 -11 174 0 826 11 -3zm0 -1355l0 -565 -11 0 0 565 11 0z"/>
  <path class="fil17" d="M4429 5801l0 -1169 -11 174 0 998 11 -3zm0 -1352l0 -565 -11 0 0 565 11 0z"/>
  <path class="fil17" d="M4440 5798l0 -1340 -11 174 0 1169 11 -3zm0 -1349l0 -565 -11 0 0 565 11 0z"/>
  <polygon class="fil17" points="4450,5795 4450,3884 4440,3884 4440,4449 4440,4449 4440,4458 4440,5798 "/>
  <polygon class="fil17" points="4461,5792 4461,3884 4450,3884 4450,5795 "/>
  <polygon class="fil17" points="4471,5789 4471,3884 4461,3884 4461,5792 "/>
  <polygon class="fil17" points="4482,5786 4482,3884 4471,3884 4471,5789 "/>
  <polygon class="fil18" points="4492,5783 4492,3884 4482,3884 4482,5786 "/>
  <polygon class="fil18" points="4503,5780 4503,3884 4492,3884 4492,5783 "/>
  <polygon class="fil18" points="4513,5777 4513,3884 4503,3884 4503,5780 "/>
  <polygon class="fil18" points="4524,5773 4524,3884 4513,3884 4513,5777 "/>
  <polygon class="fil18" points="4534,5770 4534,3884 4524,3884 4524,5773 "/>
  <polygon class="fil18" points="4545,5767 4545,3884 4534,3884 4534,5770 "/>
  <polygon class="fil18" points="4555,5764 4555,3884 4545,3884 4545,5767 "/>
  <polygon class="fil19" points="4566,5761 4566,3884 4555,3884 4555,5764 "/>
  <polygon class="fil19" points="4576,5758 4576,3884 4566,3884 4566,5761 "/>
  <polygon class="fil19" points="4587,5755 4587,3884 4576,3884 4576,5758 "/>
  <polygon class="fil19" points="4598,5752 4598,3884 4587,3884 4587,5755 "/>
  <polygon class="fil19" points="4608,5749 4608,3884 4598,3884 4598,5752 "/>
  <polygon class="fil19" points="4619,5746 4619,3884 4608,3884 4608,5749 "/>
  <polygon class="fil19" points="4629,5743 4629,3884 4619,3884 4619,5746 "/>
  <polygon class="fil19" points="4640,5740 4640,3884 4629,3884 4629,5743 "/>
  <polygon class="fil19" points="4650,5737 4650,3884 4640,3884 4640,5740 "/>
  <polygon class="fil19" points="4661,5734 4661,3884 4650,3884 4650,5737 "/>
  <polygon class="fil19" points="4671,5730 4671,3884 4661,3884 4661,5734 "/>
  <polygon class="fil19" points="4682,5727 4682,3884 4671,3884 4671,5730 "/>
  <polygon class="fil19" points="4692,5724 4692,3884 4682,3884 4682,5727 "/>
  <polygon class="fil19" points="4703,5721 4703,3884 4692,3884 4692,5724 "/>
  <polygon class="fil19" points="4713,5718 4713,3884 4703,3884 4703,5721 "/>
  <polygon class="fil19" points="4724,5715 4724,3884 4713,3884 4713,5718 "/>
  <polygon class="fil19" points="4734,5712 4734,3884 4724,3884 4724,5715 "/>
  <polygon class="fil20" points="4745,5709 4745,3884 4734,3884 4734,5712 "/>
  <polygon class="fil20" points="4755,5706 4755,3884 4745,3884 4745,5709 "/>
  <polygon class="fil20" points="4766,5703 4766,3884 4755,3884 4755,5706 "/>
  <polygon class="fil20" points="4776,5700 4776,3884 4766,3884 4766,5703 "/>
  <polygon class="fil20" points="4787,5697 4787,3884 4776,3884 4776,5700 "/>
  <polygon class="fil21" points="4798,5694 4798,3884 4787,3884 4787,5697 "/>
  <polygon class="fil21" points="4808,5690 4808,3884 4798,3884 4798,5694 "/>
  <polygon class="fil21" points="4819,5687 4819,3884 4808,3884 4808,5690 "/>
  <polygon class="fil0" points="4829,5684 4829,3884 4819,3884 4819,5687 "/>
  <polygon class="fil0" points="4840,5681 4840,3884 4829,3884 4829,5684 "/>
  <polygon class="fil0" points="4850,5678 4850,3884 4840,3884 4840,5681 "/>
  <polygon class="fil0" points="4861,5675 4861,3884 4850,3884 4850,5678 "/>
  <polygon class="fil0" points="4871,5672 4871,3884 4861,3884 4861,5675 "/>
  <polygon class="fil0" points="4882,5669 4882,3884 4871,3884 4871,5672 "/>
  <polygon class="fil0" points="4892,5666 4892,3884 4882,3884 4882,5669 "/>
  <polygon class="fil0" points="4903,5663 4903,3884 4892,3884 4892,5666 "/>
  <polygon class="fil0" points="4913,5660 4913,3884 4903,3884 4903,5663 "/>
  <polygon class="fil0" points="4924,5657 4924,3884 4913,3884 4913,5660 "/>
  <polygon class="fil0" points="4934,5579 4934,3884 4924,3884 4924,5657 4928,5656 "/>
  <polygon class="fil0" points="4945,5458 4945,3884 4934,3884 4934,5579 "/>
  <polygon class="fil0" points="4955,5337 4955,3884 4945,3884 4945,5458 "/>
  <polygon class="fil0" points="4966,5216 4966,3884 4955,3884 4955,5337 "/>
  <polygon class="fil0" points="4977,5095 4977,3884 4966,3884 4966,5216 "/>
  <polygon class="fil0" points="4987,4974 4987,3884 4977,3884 4977,5095 "/>
  <polygon class="fil0" points="4998,4853 4998,3884 4987,3884 4987,4974 "/>
  <polygon class="fil0" points="5008,4732 5008,3884 4998,3884 4998,4853 "/>
  <polygon class="fil0" points="5019,4611 5019,3884 5008,3884 5008,4732 "/>
  <polygon class="fil0" points="5029,4490 5029,3884 5019,3884 5019,4611 "/>
  <polygon class="fil0" points="5040,4369 5040,3884 5029,3884 5029,4490 "/>
  <polygon class="fil0" points="5050,4248 5050,3884 5040,3884 5040,4369 "/>
  <polygon class="fil0" points="5061,4126 5061,3884 5050,3884 5050,4248 "/>
  <polygon class="fil0" points="5071,4005 5071,3884 5061,3884 5061,4126 "/>
  <polygon class="fil0" points="5082,3884 5071,3884 5071,4005 "/>
  <polygon class="fil22" points="3738,4447 2429,4443 2384,3884 2429,4443 2431,4442 2431,4443 3738,4447 "/>
  <g style="clip-path:url(#id2)">
   <image transform="matrix(4.91969 0 0 41.9174 -16008.4 -152155)" x="3736" y="3722" width="14" height="14" xlink:href="p1dddu6ink1l04107g13sf1glpn4f4_Images\p1dddu6ink1l04107g13sf1glpn4f4_ImgID3.png"/>
  </g>
  <polygon class="fil23" points="2397,4015 2397,3884 2386,3884 "/>
  <polygon class="fil23" points="2408,4146 2408,3884 2397,3884 2397,4015 "/>
  <polygon class="fil23" points="2418,4277 2418,3884 2408,3884 2408,4146 "/>
  <polygon class="fil23" points="2429,4408 2429,3884 2418,3884 2418,4277 "/>
  <polygon class="fil23" points="2439,4443 2439,3884 2429,3884 2429,4408 2431,4442 2431,4443 "/>
  <polygon class="fil23" points="2450,4443 2450,3884 2439,3884 2439,4443 "/>
  <polygon class="fil23" points="2460,4443 2460,3884 2450,3884 2450,4443 "/>
  <polygon class="fil23" points="2471,4443 2471,3884 2460,3884 2460,4443 "/>
  <polygon class="fil23" points="2481,4443 2481,3884 2471,3884 2471,4443 "/>
  <polygon class="fil23" points="2492,4443 2492,3884 2481,3884 2481,4443 "/>
  <polygon class="fil23" points="2502,4443 2502,3884 2492,3884 2492,4443 "/>
  <polygon class="fil23" points="2513,4443 2513,3884 2502,3884 2502,4443 "/>
  <polygon class="fil23" points="2523,4443 2523,3884 2513,3884 2513,4443 "/>
  <polygon class="fil23" points="2534,4443 2534,3884 2523,3884 2523,4443 "/>
  <polygon class="fil23" points="2544,4443 2544,3884 2534,3884 2534,4443 "/>
  <polygon class="fil23" points="2555,4443 2555,3884 2544,3884 2544,4443 "/>
  <polygon class="fil23" points="2565,4443 2565,3884 2555,3884 2555,4443 "/>
  <polygon class="fil23" points="2576,4443 2576,3884 2565,3884 2565,4443 "/>
  <polygon class="fil23" points="2587,4443 2587,3884 2576,3884 2576,4443 "/>
  <polygon class="fil23" points="2597,4443 2597,3884 2587,3884 2587,4443 "/>
  <polygon class="fil23" points="2608,4443 2608,3884 2597,3884 2597,4443 "/>
  <polygon class="fil23" points="2618,4443 2618,3884 2608,3884 2608,4443 "/>
  <polygon class="fil23" points="2629,4443 2629,3884 2618,3884 2618,4443 "/>
  <polygon class="fil23" points="2639,4443 2639,3884 2629,3884 2629,4443 "/>
  <polygon class="fil23" points="2650,4443 2650,3884 2639,3884 2639,4443 "/>
  <polygon class="fil23" points="2660,4443 2660,3884 2650,3884 2650,4443 "/>
  <polygon class="fil23" points="2671,4443 2671,3884 2660,3884 2660,4443 "/>
  <polygon class="fil24" points="2681,4443 2681,3884 2671,3884 2671,4443 "/>
  <polygon class="fil24" points="2692,4444 2692,3884 2681,3884 2681,4443 "/>
  <polygon class="fil24" points="2702,4444 2702,3884 2692,3884 2692,4444 "/>
  <polygon class="fil24" points="2713,4444 2713,3884 2702,3884 2702,4444 "/>
  <polygon class="fil25" points="2723,4444 2723,3884 2713,3884 2713,4444 "/>
  <polygon class="fil25" points="2734,4444 2734,3884 2723,3884 2723,4444 "/>
  <polygon class="fil25" points="2744,4444 2744,3884 2734,3884 2734,4444 "/>
  <polygon class="fil25" points="2755,4444 2755,3884 2744,3884 2744,4444 "/>
  <polygon class="fil25" points="2766,4444 2766,3884 2755,3884 2755,4444 "/>
  <polygon class="fil25" points="2776,4444 2776,3884 2766,3884 2766,4444 "/>
  <polygon class="fil26" points="2787,4444 2787,3884 2776,3884 2776,4444 "/>
  <polygon class="fil26" points="2797,4444 2797,3884 2787,3884 2787,4444 "/>
  <polygon class="fil26" points="2808,4444 2808,3884 2797,3884 2797,4444 "/>
  <polygon class="fil26" points="2818,4444 2818,3884 2808,3884 2808,4444 "/>
  <polygon class="fil26" points="2829,4444 2829,3884 2818,3884 2818,4444 "/>
  <polygon class="fil26" points="2839,4444 2839,3884 2829,3884 2829,4444 "/>
  <polygon class="fil26" points="2850,4444 2850,3884 2839,3884 2839,4444 "/>
  <polygon class="fil26" points="2860,4444 2860,3884 2850,3884 2850,4444 "/>
  <polygon class="fil26" points="2871,4444 2871,3884 2860,3884 2860,4444 "/>
  <polygon class="fil26" points="2881,4444 2881,3884 2871,3884 2871,4444 "/>
  <polygon class="fil26" points="2892,4444 2892,3884 2881,3884 2881,4444 "/>
  <polygon class="fil26" points="2902,4444 2902,3884 2892,3884 2892,4444 "/>
  <polygon class="fil26" points="2913,4444 2913,3884 2902,3884 2902,4444 "/>
  <polygon class="fil26" points="2923,4444 2923,3884 2913,3884 2913,4444 "/>
  <polygon class="fil26" points="2934,4444 2934,3884 2923,3884 2923,4444 "/>
  <polygon class="fil26" points="2945,4444 2945,3884 2934,3884 2934,4444 "/>
  <polygon class="fil26" points="2955,4444 2955,3884 2945,3884 2945,4444 "/>
  <polygon class="fil27" points="2966,4444 2966,3884 2955,3884 2955,4444 "/>
  <polygon class="fil27" points="2976,4444 2976,3884 2966,3884 2966,4444 "/>
  <polygon class="fil27" points="2987,4444 2987,3884 2976,3884 2976,4444 "/>
  <polygon class="fil27" points="2997,4445 2997,3884 2987,3884 2987,4444 "/>
  <polygon class="fil27" points="3008,4445 3008,3884 2997,3884 2997,4445 "/>
  <polygon class="fil27" points="3018,4445 3018,3884 3008,3884 3008,4445 "/>
  <polygon class="fil27" points="3029,4445 3029,3884 3018,3884 3018,4445 "/>
  <polygon class="fil27" points="3039,4445 3039,3884 3029,3884 3029,4445 "/>
  <polygon class="fil27" points="3050,4445 3050,3884 3039,3884 3039,4445 "/>
  <polygon class="fil27" points="3060,4445 3060,3884 3050,3884 3050,4445 "/>
  <polygon class="fil27" points="3071,4445 3071,3884 3060,3884 3060,4445 "/>
  <polygon class="fil27" points="3081,4445 3081,3884 3071,3884 3071,4445 "/>
  <polygon class="fil27" points="3092,4445 3092,3884 3081,3884 3081,4445 "/>
  <polygon class="fil27" points="3102,4445 3102,3884 3092,3884 3092,4445 "/>
  <polygon class="fil27" points="3113,4445 3113,3884 3102,3884 3102,4445 "/>
  <polygon class="fil27" points="3123,4445 3123,3884 3113,3884 3113,4445 "/>
  <polygon class="fil27" points="3134,4445 3134,3884 3123,3884 3123,4445 "/>
  <polygon class="fil27" points="3145,4445 3145,3884 3134,3884 3134,4445 "/>
  <polygon class="fil27" points="3155,4445 3155,3884 3145,3884 3145,4445 "/>
  <polygon class="fil27" points="3166,4445 3166,3884 3155,3884 3155,4445 "/>
  <polygon class="fil27" points="3176,4445 3176,3884 3166,3884 3166,4445 "/>
  <polygon class="fil27" points="3187,4445 3187,3884 3176,3884 3176,4445 "/>
  <polygon class="fil28" points="3197,4445 3197,3884 3187,3884 3187,4445 "/>
  <polygon class="fil28" points="3208,4445 3208,3884 3197,3884 3197,4445 "/>
  <polygon class="fil28" points="3218,4445 3218,3884 3208,3884 3208,4445 "/>
  <polygon class="fil28" points="3229,4445 3229,3884 3218,3884 3218,4445 "/>
  <polygon class="fil28" points="3239,4445 3239,3884 3229,3884 3229,4445 "/>
  <polygon class="fil28" points="3250,4445 3250,3884 3239,3884 3239,4445 "/>
  <polygon class="fil28" points="3260,4445 3260,3884 3250,3884 3250,4445 "/>
  <polygon class="fil28" points="3271,4445 3271,3884 3260,3884 3260,4445 "/>
  <polygon class="fil28" points="3281,4445 3281,3884 3271,3884 3271,4445 "/>
  <polygon class="fil28" points="3292,4445 3292,3884 3281,3884 3281,4445 "/>
  <polygon class="fil28" points="3302,4445 3302,3884 3292,3884 3292,4445 "/>
  <polygon class="fil28" points="3313,4446 3313,3884 3302,3884 3302,4445 "/>
  <polygon class="fil28" points="3324,4446 3324,3884 3313,3884 3313,4446 "/>
  <polygon class="fil28" points="3334,4446 3334,3884 3324,3884 3324,4446 "/>
  <polygon class="fil28" points="3345,4446 3345,3884 3334,3884 3334,4446 "/>
  <polygon class="fil28" points="3355,4446 3355,3884 3345,3884 3345,4446 "/>
  <polygon class="fil29" points="3366,4446 3366,3884 3355,3884 3355,4446 "/>
  <polygon class="fil29" points="3376,4446 3376,3884 3366,3884 3366,4446 "/>
  <polygon class="fil29" points="3387,4446 3387,3884 3376,3884 3376,4446 "/>
  <polygon class="fil30" points="3397,4446 3397,3884 3387,3884 3387,4446 "/>
  <polygon class="fil30" points="3408,4446 3408,3884 3397,3884 3397,4446 "/>
  <polygon class="fil30" points="3418,4446 3418,3884 3408,3884 3408,4446 "/>
  <polygon class="fil30" points="3429,4446 3429,3884 3418,3884 3418,4446 "/>
  <polygon class="fil30" points="3439,4446 3439,3884 3429,3884 3429,4446 "/>
  <polygon class="fil30" points="3450,4446 3450,3884 3439,3884 3439,4446 "/>
  <polygon class="fil30" points="3460,4446 3460,3884 3450,3884 3450,4446 "/>
  <polygon class="fil30" points="3471,4446 3471,3884 3460,3884 3460,4446 "/>
  <polygon class="fil30" points="3481,4446 3481,3884 3471,3884 3471,4446 "/>
  <polygon class="fil30" points="3492,4446 3492,3884 3481,3884 3481,4446 "/>
  <polygon class="fil30" points="3503,4446 3503,3884 3492,3884 3492,4446 "/>
  <polygon class="fil30" points="3513,4446 3513,3884 3503,3884 3503,4446 "/>
  <polygon class="fil30" points="3524,4446 3524,3884 3513,3884 3513,4446 "/>
  <polygon class="fil30" points="3534,4446 3534,3884 3524,3884 3524,4446 "/>
  <polygon class="fil30" points="3545,4446 3545,3884 3534,3884 3534,4446 "/>
  <polygon class="fil30" points="3555,4446 3555,3884 3545,3884 3545,4446 "/>
  <polygon class="fil30" points="3566,4446 3566,3884 3555,3884 3555,4446 "/>
  <polygon class="fil30" points="3576,4446 3576,3884 3566,3884 3566,4446 "/>
  <polygon class="fil30" points="3587,4446 3587,3884 3576,3884 3576,4446 "/>
  <polygon class="fil30" points="3597,4446 3597,3884 3587,3884 3587,4446 "/>
  <polygon class="fil30" points="3608,4446 3608,3884 3597,3884 3597,4446 "/>
  <polygon class="fil30" points="3618,4446 3618,3884 3608,3884 3608,4446 "/>
  <polygon class="fil30" points="3629,4447 3629,3884 3618,3884 3618,4446 "/>
  <polygon class="fil30" points="3639,4447 3639,3884 3629,3884 3629,4447 "/>
  <polygon class="fil30" points="3650,4447 3650,3884 3639,3884 3639,4447 "/>
  <polygon class="fil30" points="3660,4447 3660,3884 3650,3884 3650,4447 "/>
  <polygon class="fil31" points="3671,4447 3671,3884 3660,3884 3660,4447 "/>
  <polygon class="fil31" points="3682,4447 3682,3884 3671,3884 3671,4447 "/>
  <polygon class="fil31" points="3692,4447 3692,3884 3682,3884 3682,4447 "/>
  <polygon class="fil31" points="3703,4447 3703,3884 3692,3884 3692,4447 "/>
  <polygon class="fil31" points="3713,4447 3713,3884 3703,3884 3703,4447 "/>
  <polygon class="fil31" points="3724,4447 3724,3884 3713,3884 3713,4447 "/>
  <polygon class="fil31" points="3734,4447 3734,3884 3724,3884 3724,4447 "/>
  <polygon class="fil32" points="3738,3884 3734,3884 3734,4447 3738,4447 "/>
  <path class="fil22" d="M3738 6002l-1194 -353 -77 -892 2 0 77 892 1192 352 0 1zm-4 -622l-1 0 5 -2 0 1 -4 1z"/>
  <polygon class="fil23" points="2471,4767 2471,4757 2470,4757 "/>
  <polygon class="fil23" points="2481,4888 2481,4757 2471,4757 2471,4766 "/>
  <polygon class="fil23" points="2492,5011 2492,4757 2481,4757 2481,4889 "/>
  <polygon class="fil23" points="2502,5132 2502,4757 2492,4757 2492,5011 "/>
  <polygon class="fil23" points="2513,5254 2513,4757 2502,4757 2502,5133 "/>
  <polygon class="fil23" points="2523,5376 2523,4757 2513,4757 2513,5254 "/>
  <polygon class="fil23" points="2534,5498 2534,4757 2523,4757 2523,5376 "/>
  <polygon class="fil23" points="2544,5620 2544,4757 2534,4757 2534,5498 "/>
  <polygon class="fil23" points="2555,5652 2555,4757 2544,4757 2544,5620 2547,5649 "/>
  <polygon class="fil23" points="2565,5655 2565,4757 2555,4757 2555,5652 "/>
  <polygon class="fil23" points="2576,5658 2576,4757 2565,4757 2565,5655 "/>
  <polygon class="fil23" points="2587,5661 2587,4757 2576,4757 2576,5658 "/>
  <polygon class="fil23" points="2597,5664 2597,4757 2587,4757 2587,5661 "/>
  <polygon class="fil23" points="2608,5667 2608,4757 2597,4757 2597,5664 "/>
  <polygon class="fil23" points="2618,5670 2618,4757 2608,4757 2608,5667 "/>
  <polygon class="fil23" points="2629,5673 2629,4757 2618,4757 2618,5670 "/>
  <polygon class="fil23" points="2639,5676 2639,4757 2629,4757 2629,5673 "/>
  <polygon class="fil23" points="2650,5680 2650,4757 2639,4757 2639,5676 "/>
  <polygon class="fil23" points="2660,5683 2660,4757 2650,4757 2650,5680 "/>
  <polygon class="fil23" points="2671,5686 2671,4757 2660,4757 2660,5683 "/>
  <polygon class="fil24" points="2681,5689 2681,4757 2671,4757 2671,5686 "/>
  <polygon class="fil24" points="2692,5692 2692,4757 2681,4757 2681,5689 "/>
  <polygon class="fil24" points="2702,5695 2702,4757 2692,4757 2692,5692 "/>
  <polygon class="fil24" points="2713,5698 2713,4757 2702,4757 2702,5695 "/>
  <polygon class="fil25" points="2723,5701 2723,4757 2713,4757 2713,5698 "/>
  <polygon class="fil25" points="2734,5704 2734,4757 2723,4757 2723,5701 "/>
  <polygon class="fil25" points="2744,5708 2744,4757 2734,4757 2734,5704 "/>
  <polygon class="fil25" points="2755,5711 2755,4757 2744,4757 2744,5708 "/>
  <polygon class="fil25" points="2766,5714 2766,4757 2755,4757 2755,5711 "/>
  <polygon class="fil25" points="2776,5717 2776,4757 2766,4757 2766,5714 "/>
  <polygon class="fil26" points="2787,5720 2787,4757 2776,4757 2776,5717 "/>
  <polygon class="fil26" points="2797,5723 2797,4757 2787,4757 2787,5720 "/>
  <polygon class="fil26" points="2808,5726 2808,4757 2797,4757 2797,5723 "/>
  <polygon class="fil26" points="2818,5729 2818,4757 2808,4757 2808,5726 "/>
  <polygon class="fil26" points="2829,5732 2829,4757 2818,4757 2818,5729 "/>
  <polygon class="fil26" points="2839,5736 2839,4757 2829,4757 2829,5732 "/>
  <polygon class="fil26" points="2850,5739 2850,4757 2839,4757 2839,5736 "/>
  <polygon class="fil26" points="2860,5742 2860,4757 2850,4757 2850,5739 "/>
  <polygon class="fil26" points="2871,5745 2871,4757 2860,4757 2860,5742 "/>
  <polygon class="fil26" points="2881,5748 2881,4757 2871,4757 2871,5745 "/>
  <polygon class="fil26" points="2892,5751 2892,4757 2881,4757 2881,5748 "/>
  <polygon class="fil26" points="2902,5754 2902,4757 2892,4757 2892,5751 "/>
  <polygon class="fil26" points="2913,5757 2913,4757 2902,4757 2902,5754 "/>
  <polygon class="fil26" points="2923,5760 2923,4757 2913,4757 2913,5757 "/>
  <polygon class="fil26" points="2934,5764 2934,4757 2923,4757 2923,5760 "/>
  <polygon class="fil26" points="2945,5767 2945,4757 2934,4757 2934,5764 "/>
  <polygon class="fil26" points="2955,5770 2955,4757 2945,4757 2945,5767 "/>
  <polygon class="fil27" points="2966,5773 2966,4757 2955,4757 2955,5770 "/>
  <polygon class="fil27" points="2976,5776 2976,4757 2966,4757 2966,5773 "/>
  <polygon class="fil27" points="2987,5779 2987,4757 2976,4757 2976,5776 "/>
  <polygon class="fil27" points="2997,5782 2997,4757 2987,4757 2987,5779 "/>
  <polygon class="fil27" points="3008,5785 3008,4757 2997,4757 2997,5782 "/>
  <polygon class="fil27" points="3018,5788 3018,4757 3008,4757 3008,5785 "/>
  <polygon class="fil27" points="3029,5792 3029,4757 3018,4757 3018,5788 "/>
  <polygon class="fil27" points="3039,5795 3039,4757 3029,4757 3029,5792 "/>
  <polygon class="fil27" points="3050,5798 3050,4757 3039,4757 3039,5795 "/>
  <polygon class="fil27" points="3060,5801 3060,4783 3058,4757 3050,4757 3050,5798 "/>
  <polygon class="fil27" points="3071,5804 3071,4909 3060,4782 3060,5801 "/>
  <polygon class="fil27" points="3081,5807 3081,5035 3071,4909 3071,5804 "/>
  <polygon class="fil27" points="3092,5810 3092,5161 3081,5035 3081,5807 "/>
  <polygon class="fil27" points="3102,5813 3102,5221 3097,5219 3092,5161 3092,5810 "/>
  <polygon class="fil27" points="3113,5817 3113,5223 3102,5221 3102,5813 "/>
  <polygon class="fil27" points="3123,5820 3123,5226 3113,5223 3113,5817 "/>
  <polygon class="fil27" points="3134,5823 3134,5229 3123,5226 3123,5820 "/>
  <polygon class="fil27" points="3145,5826 3145,5231 3134,5229 3134,5823 "/>
  <polygon class="fil27" points="3155,5829 3155,5234 3145,5231 3145,5826 "/>
  <polygon class="fil27" points="3166,5832 3166,5237 3155,5234 3155,5829 "/>
  <polygon class="fil27" points="3176,5835 3176,5239 3166,5237 3166,5832 "/>
  <polygon class="fil27" points="3187,5838 3187,5242 3176,5239 3176,5835 "/>
  <polygon class="fil28" points="3197,5841 3197,5245 3187,5242 3187,5838 "/>
  <polygon class="fil28" points="3208,5845 3208,5247 3197,5245 3197,5841 "/>
  <polygon class="fil28" points="3218,5848 3218,5250 3208,5247 3208,5845 "/>
  <polygon class="fil28" points="3229,5851 3229,5253 3218,5250 3218,5848 "/>
  <polygon class="fil28" points="3239,5854 3239,5255 3229,5253 3229,5851 "/>
  <polygon class="fil28" points="3250,5857 3250,5258 3239,5255 3239,5854 "/>
  <polygon class="fil28" points="3260,5860 3260,5261 3250,5258 3250,5857 "/>
  <polygon class="fil28" points="3271,5863 3271,5263 3260,5261 3260,5860 "/>
  <polygon class="fil28" points="3281,5866 3281,5266 3271,5263 3271,5863 "/>
  <polygon class="fil28" points="3292,5869 3292,5268 3281,5266 3281,5866 "/>
  <polygon class="fil28" points="3302,5873 3302,5271 3292,5268 3292,5869 "/>
  <polygon class="fil28" points="3313,5876 3313,5274 3302,5271 3302,5873 "/>
  <polygon class="fil28" points="3324,5879 3324,5276 3313,5274 3313,5876 "/>
  <polygon class="fil28" points="3334,5882 3334,5279 3324,5276 3324,5879 "/>
  <polygon class="fil28" points="3345,5885 3345,5282 3334,5279 3334,5882 "/>
  <polygon class="fil28" points="3355,5888 3355,5284 3345,5282 3345,5885 "/>
  <polygon class="fil29" points="3366,5891 3366,5287 3355,5284 3355,5888 "/>
  <polygon class="fil29" points="3376,5894 3376,5290 3366,5287 3366,5891 "/>
  <polygon class="fil29" points="3387,5897 3387,5292 3376,5290 3376,5894 "/>
  <polygon class="fil30" points="3397,5901 3397,5295 3387,5292 3387,5897 "/>
  <polygon class="fil30" points="3408,5904 3408,5298 3397,5295 3397,5901 "/>
  <polygon class="fil30" points="3418,5907 3418,5300 3408,5298 3408,5904 "/>
  <polygon class="fil30" points="3429,5910 3429,5303 3418,5300 3418,5907 "/>
  <polygon class="fil30" points="3439,5913 3439,5306 3429,5303 3429,5910 "/>
  <polygon class="fil30" points="3450,5916 3450,5308 3439,5306 3439,5913 "/>
  <polygon class="fil30" points="3460,5919 3460,5311 3450,5308 3450,5916 "/>
  <polygon class="fil30" points="3471,5922 3471,5314 3460,5311 3460,5919 "/>
  <polygon class="fil30" points="3481,5925 3481,5316 3471,5314 3471,5922 "/>
  <polygon class="fil30" points="3492,5929 3492,5319 3481,5316 3481,5925 "/>
  <polygon class="fil30" points="3503,5932 3503,5322 3492,5319 3492,5929 "/>
  <polygon class="fil30" points="3513,5935 3513,5324 3503,5322 3503,5932 "/>
  <polygon class="fil30" points="3524,5938 3524,5327 3513,5324 3513,5935 "/>
  <polygon class="fil30" points="3534,5941 3534,5330 3524,5327 3524,5938 "/>
  <polygon class="fil30" points="3545,5944 3545,5332 3534,5330 3534,5941 "/>
  <polygon class="fil30" points="3555,5947 3555,5335 3545,5332 3545,5944 "/>
  <polygon class="fil30" points="3566,5950 3566,5338 3555,5335 3555,5947 "/>
  <polygon class="fil30" points="3576,5953 3576,5340 3566,5338 3566,5950 "/>
  <polygon class="fil30" points="3587,5957 3587,5343 3576,5340 3576,5953 "/>
  <polygon class="fil30" points="3597,5960 3597,5346 3587,5343 3587,5957 "/>
  <polygon class="fil30" points="3608,5963 3608,5348 3597,5346 3597,5960 "/>
  <polygon class="fil30" points="3618,5966 3618,5351 3608,5348 3608,5963 "/>
  <polygon class="fil30" points="3629,5969 3629,5354 3618,5351 3618,5966 "/>
  <polygon class="fil30" points="3639,5972 3639,5356 3629,5354 3629,5969 "/>
  <polygon class="fil30" points="3650,5975 3650,5359 3639,5356 3639,5972 "/>
  <polygon class="fil30" points="3660,5978 3660,5362 3650,5359 3650,5975 "/>
  <polygon class="fil31" points="3671,5982 3671,5364 3660,5362 3660,5978 "/>
  <polygon class="fil31" points="3682,5985 3682,5367 3671,5364 3671,5982 "/>
  <polygon class="fil31" points="3692,5988 3692,5370 3682,5367 3682,5985 "/>
  <polygon class="fil31" points="3703,5991 3703,5372 3692,5370 3692,5988 "/>
  <polygon class="fil31" points="3713,5994 3713,5375 3703,5372 3703,5991 "/>
  <polygon class="fil31" points="3724,5997 3724,5377 3713,5375 3713,5994 "/>
  <polygon class="fil31" points="3734,6000 3734,5380 3733,5379 3732,5380 3724,5377 3724,5997 "/>
  <polygon class="fil32" points="3734,5380 3734,6000 3738,6001 3738,5378 3734,5380 "/>
  <polygon class="fil12" points="3738,3288 3740,3288 3748,3288 3748,2716 3738,2716 "/>
  <polygon class="fil12" points="3748,3288 3760,3288 3760,2716 3748,2716 "/>
  <polygon class="fil12" points="3760,3288 3771,3288 3771,2716 3760,2716 "/>
  <polygon class="fil12" points="3771,3288 3783,3288 3783,2716 3771,2716 "/>
  <polygon class="fil12" points="3783,3288 3794,3288 3794,2716 3783,2716 "/>
  <polygon class="fil12" points="3794,3288 3806,3288 3806,2716 3794,2716 "/>
  <polygon class="fil12" points="3806,3288 3817,3288 3817,2716 3806,2716 "/>
  <polygon class="fil12" points="3817,3288 3817,3288 3828,3288 3828,2716 3817,2716 "/>
  <polygon class="fil12" points="3828,3288 3840,3288 3840,2716 3828,2716 "/>
  <polygon class="fil12" points="3840,3288 3851,3288 3851,2716 3840,2716 "/>
  <polygon class="fil13" points="3851,3288 3863,3288 3863,2716 3851,2716 "/>
  <polygon class="fil13" points="3863,3288 3874,3288 3874,2716 3863,2716 "/>
  <polygon class="fil13" points="3874,3288 3886,3288 3886,2716 3874,2716 "/>
  <polygon class="fil13" points="3886,3288 3897,3288 3897,2716 3886,2716 "/>
  <polygon class="fil13" points="3897,3288 3909,3288 3909,2716 3897,2716 "/>
  <polygon class="fil14" points="3909,3288 3920,3288 3920,2716 3909,2716 "/>
  <polygon class="fil14" points="3920,3288 3931,3288 3931,2716 3920,2716 "/>
  <polygon class="fil14" points="3931,3288 3943,3288 3943,2716 3931,2716 "/>
  <polygon class="fil14" points="3943,3288 3954,3288 3954,2716 3943,2716 "/>
  <polygon class="fil14" points="3954,3288 3966,3288 3966,2716 3954,2716 "/>
  <polygon class="fil14" points="3966,3288 3977,3288 3977,2716 3966,2716 "/>
  <polygon class="fil14" points="3977,3288 3989,3288 3989,2716 3977,2716 "/>
  <polygon class="fil14" points="3989,3288 4000,3288 4000,2716 3989,2716 "/>
  <polygon class="fil14" points="4000,3288 4011,3288 4011,2716 4000,2716 "/>
  <polygon class="fil14" points="4011,3288 4023,3288 4023,2716 4011,2716 "/>
  <polygon class="fil14" points="4023,3288 4034,3288 4034,2716 4023,2716 "/>
  <polygon class="fil14" points="4034,3288 4046,3288 4046,2716 4034,2716 "/>
  <polygon class="fil15" points="4046,3288 4057,3288 4057,2716 4046,2716 "/>
  <polygon class="fil15" points="4057,3288 4069,3288 4069,2716 4057,2716 "/>
  <polygon class="fil15" points="4069,3288 4080,3288 4080,2716 4069,2716 "/>
  <polygon class="fil15" points="4080,3288 4091,3288 4091,2716 4080,2716 "/>
  <polygon class="fil15" points="4091,3288 4103,3288 4103,2716 4091,2716 "/>
  <polygon class="fil15" points="4103,3288 4114,3288 4114,2716 4103,2716 "/>
  <polygon class="fil15" points="4114,3288 4126,3288 4126,2716 4114,2716 "/>
  <polygon class="fil15" points="4126,3288 4137,3288 4137,2716 4126,2716 "/>
  <polygon class="fil15" points="4137,3288 4149,3288 4149,2716 4137,2716 "/>
  <polygon class="fil15" points="4149,3288 4160,3288 4160,2716 4149,2716 "/>
  <polygon class="fil15" points="4160,3288 4171,3288 4171,2716 4160,2716 "/>
  <polygon class="fil15" points="4171,3288 4183,3288 4183,2716 4171,2716 "/>
  <polygon class="fil15" points="4183,3288 4194,3288 4194,2716 4183,2716 "/>
  <polygon class="fil16" points="4194,3288 4206,3288 4206,2716 4194,2716 "/>
  <polygon class="fil16" points="4206,3288 4217,3288 4217,2716 4206,2716 "/>
  <polygon class="fil16" points="4217,3288 4229,3288 4229,2716 4217,2716 "/>
  <polygon class="fil16" points="4229,3288 4240,3288 4240,2716 4229,2716 "/>
  <polygon class="fil16" points="4240,3288 4251,3288 4251,2716 4240,2716 "/>
  <polygon class="fil16" points="4251,3288 4263,3288 4263,2716 4251,2716 "/>
  <polygon class="fil16" points="4263,3288 4274,3288 4274,2716 4263,2716 "/>
  <polygon class="fil16" points="4274,3288 4286,3288 4286,2716 4274,2716 "/>
  <polygon class="fil16" points="4286,3288 4297,3288 4297,2716 4286,2716 "/>
  <polygon class="fil16" points="4297,3288 4309,3288 4309,2716 4297,2716 "/>
  <polygon class="fil16" points="4309,3288 4320,3288 4320,2716 4309,2716 "/>
  <polygon class="fil16" points="4320,3288 4331,3288 4331,2716 4320,2716 "/>
  <polygon class="fil16" points="4331,3288 4343,3288 4343,2716 4331,2716 "/>
  <polygon class="fil16" points="4343,3288 4354,3288 4354,2716 4343,2716 "/>
  <polygon class="fil16" points="4354,3288 4366,3288 4366,2716 4354,2716 "/>
  <polygon class="fil16" points="4366,3288 4377,3288 4377,2716 4366,2716 "/>
  <polygon class="fil16" points="4377,3288 4389,3288 4389,2716 4377,2716 "/>
  <polygon class="fil16" points="4389,3288 4400,3288 4400,2716 4389,2716 "/>
  <polygon class="fil16" points="4400,3288 4411,3288 4411,2716 4400,2716 "/>
  <polygon class="fil16" points="4411,3288 4423,3288 4423,2716 4411,2716 "/>
  <polygon class="fil16" points="4423,3288 4434,3288 4434,2716 4423,2716 "/>
  <polygon class="fil17" points="4434,3288 4446,3288 4446,2716 4434,2716 "/>
  <polygon class="fil17" points="4446,3288 4457,3288 4457,2716 4446,2716 "/>
  <polygon class="fil17" points="4457,3288 4469,3288 4469,2716 4457,2716 "/>
  <polygon class="fil17" points="4469,3288 4480,3288 4480,2716 4469,2716 "/>
  <polygon class="fil17" points="4480,3288 4491,3288 4491,2716 4480,2716 "/>
  <polygon class="fil17" points="4491,3288 4503,3288 4503,2716 4491,2716 "/>
  <polygon class="fil17" points="4503,3288 4514,3288 4514,2716 4503,2716 "/>
  <polygon class="fil17" points="4514,3288 4526,3288 4526,2716 4514,2716 "/>
  <polygon class="fil17" points="4526,3288 4537,3288 4537,2716 4526,2716 "/>
  <polygon class="fil18" points="4537,3288 4549,3288 4549,2716 4537,2716 "/>
  <polygon class="fil18" points="4549,3288 4560,3288 4560,2716 4549,2716 "/>
  <polygon class="fil18" points="4560,3288 4571,3288 4571,2716 4560,2716 "/>
  <polygon class="fil18" points="4571,3288 4583,3288 4583,2716 4571,2716 "/>
  <polygon class="fil18" points="4583,3288 4594,3288 4594,2716 4583,2716 "/>
  <polygon class="fil18" points="4594,3288 4606,3288 4606,2716 4594,2716 "/>
  <polygon class="fil18" points="4606,3288 4617,3288 4617,2716 4606,2716 "/>
  <polygon class="fil19" points="4617,3288 4629,3288 4629,2716 4617,2716 "/>
  <polygon class="fil19" points="4629,3288 4640,3288 4640,2716 4629,2716 "/>
  <polygon class="fil19" points="4640,3288 4652,3288 4652,2716 4640,2716 "/>
  <polygon class="fil19" points="4652,3288 4663,3288 4663,2716 4652,2716 "/>
  <polygon class="fil19" points="4663,3288 4674,3288 4674,2716 4663,2716 "/>
  <polygon class="fil19" points="4674,3288 4686,3288 4686,2716 4674,2716 "/>
  <polygon class="fil19" points="4686,3288 4697,3288 4697,2716 4686,2716 "/>
  <polygon class="fil19" points="4697,3288 4709,3288 4709,2716 4697,2716 "/>
  <polygon class="fil19" points="4709,3288 4720,3288 4720,2716 4709,2716 "/>
  <polygon class="fil19" points="4720,3288 4732,3288 4732,2716 4720,2716 "/>
  <polygon class="fil19" points="4732,3288 4743,3288 4743,2716 4732,2716 "/>
  <polygon class="fil19" points="4743,3288 4754,3288 4754,2716 4743,2716 "/>
  <polygon class="fil19" points="4754,3288 4766,3288 4766,2716 4754,2716 "/>
  <polygon class="fil19" points="4766,3288 4777,3288 4777,2716 4766,2716 "/>
  <polygon class="fil19" points="4777,3288 4789,3288 4789,2716 4777,2716 "/>
  <polygon class="fil19" points="4789,3288 4800,3288 4800,2716 4789,2716 "/>
  <polygon class="fil19" points="4800,3288 4812,3288 4812,2716 4800,2716 "/>
  <polygon class="fil20" points="4812,3288 4823,3288 4823,2716 4812,2716 "/>
  <polygon class="fil20" points="4823,3288 4834,3288 4834,2716 4823,2716 "/>
  <polygon class="fil20" points="4834,3288 4846,3288 4846,2716 4834,2716 "/>
  <polygon class="fil20" points="4846,3288 4857,3288 4857,2716 4846,2716 "/>
  <polygon class="fil20" points="4857,3288 4869,3288 4869,2716 4857,2716 "/>
  <polygon class="fil21" points="4869,3288 4880,3288 4880,2716 4869,2716 "/>
  <polygon class="fil21" points="4880,3288 4892,3288 4892,2716 4880,2716 "/>
  <polygon class="fil21" points="4892,3288 4903,3288 4903,2716 4892,2716 "/>
  <polygon class="fil0" points="4903,3288 4914,3288 4914,2716 4903,2716 "/>
  <polygon class="fil0" points="4914,3288 4926,3288 4926,2716 4914,2716 "/>
  <polygon class="fil0" points="4926,3288 4937,3288 4937,2716 4926,2716 "/>
  <polygon class="fil0" points="4937,3288 4949,3288 4949,2716 4937,2716 "/>
  <polygon class="fil0" points="4949,3288 4960,3288 4960,2716 4949,2716 "/>
  <polygon class="fil0" points="4960,3288 4972,3288 4972,2716 4960,2716 "/>
  <polygon class="fil0" points="4972,3288 4983,3288 4983,2716 4972,2716 "/>
  <polygon class="fil0" points="4983,3288 4994,3288 4994,2716 4983,2716 "/>
  <polygon class="fil0" points="4994,3288 5006,3288 5006,2716 4994,2716 "/>
  <polygon class="fil0" points="5006,3288 5017,3288 5017,2716 5006,2716 "/>
  <polygon class="fil0" points="5017,3288 5029,3288 5029,2716 5017,2716 "/>
  <polygon class="fil0" points="5029,3288 5040,3288 5040,2716 5029,2716 "/>
  <polygon class="fil0" points="5040,3288 5052,3288 5052,2716 5040,2716 "/>
  <polygon class="fil0" points="5052,3288 5063,3288 5063,2716 5052,2716 "/>
  <polygon class="fil0" points="5063,3288 5074,3288 5074,2716 5063,2716 "/>
  <polygon class="fil0" points="5074,3288 5086,3288 5086,2716 5074,2716 "/>
  <polygon class="fil0" points="5086,3288 5097,3288 5097,2716 5086,2716 "/>
  <polygon class="fil0" points="5097,3288 5109,3288 5109,2716 5097,2716 "/>
  <polygon class="fil0" points="5109,3288 5120,3288 5120,2716 5109,2716 "/>
  <polygon class="fil0" points="5120,3288 5131,3288 5132,3282 5132,2716 5120,2716 "/>
  <polygon class="fil0" points="5143,3169 5143,2716 5132,2716 5132,3282 "/>
  <polygon class="fil0" points="5154,3056 5154,2716 5143,2716 5143,3169 "/>
  <polygon class="fil0" points="5166,2943 5166,2716 5154,2716 5154,3056 "/>
  <polygon class="fil0" points="5177,2830 5177,2716 5166,2716 5166,2943 "/>
  <polygon class="fil0" points="5189,2716 5177,2716 5177,2830 "/>
  <polygon class="fil23" points="2274,2809 2274,2716 2262,2716 "/>
  <polygon class="fil23" points="2285,2901 2285,2716 2274,2716 2274,2809 "/>
  <polygon class="fil23" points="2297,2994 2297,2716 2285,2716 2285,2901 "/>
  <polygon class="fil23" points="2308,3086 2308,2716 2297,2716 2297,2994 "/>
  <polygon class="fil23" points="2320,3179 2320,2716 2308,2716 2308,3086 "/>
  <polygon class="fil23" points="2331,3271 2331,2716 2320,2716 2320,3179 "/>
  <polygon class="fil23" points="2333,3288 2342,3288 2342,2716 2331,2716 2331,3271 "/>
  <polygon class="fil23" points="2342,3288 2354,3288 2354,2716 2342,2716 "/>
  <polygon class="fil23" points="2354,3288 2365,3288 2365,2716 2354,2716 "/>
  <polygon class="fil23" points="2365,3288 2377,3288 2377,2716 2365,2716 "/>
  <polygon class="fil23" points="2377,3288 2388,3288 2388,2716 2377,2716 "/>
  <polygon class="fil23" points="2388,3288 2400,3288 2400,2716 2388,2716 "/>
  <polygon class="fil23" points="2400,3288 2411,3288 2411,2716 2400,2716 "/>
  <polygon class="fil23" points="2411,3288 2423,3288 2423,2716 2411,2716 "/>
  <polygon class="fil23" points="2423,3288 2434,3288 2434,2716 2423,2716 "/>
  <polygon class="fil23" points="2434,3288 2445,3288 2445,2716 2434,2716 "/>
  <polygon class="fil23" points="2445,3288 2457,3288 2457,2716 2445,2716 "/>
  <polygon class="fil23" points="2457,3288 2468,3288 2468,2716 2457,2716 "/>
  <polygon class="fil23" points="2468,3288 2480,3288 2480,2716 2468,2716 "/>
  <polygon class="fil23" points="2480,3288 2491,3288 2491,2716 2480,2716 "/>
  <polygon class="fil23" points="2491,3288 2503,3288 2503,2716 2491,2716 "/>
  <polygon class="fil23" points="2503,3288 2514,3288 2514,2716 2503,2716 "/>
  <polygon class="fil23" points="2514,3288 2525,3288 2525,2716 2514,2716 "/>
  <polygon class="fil23" points="2525,3288 2537,3288 2537,2716 2525,2716 "/>
  <polygon class="fil23" points="2537,3288 2548,3288 2548,2716 2537,2716 "/>
  <polygon class="fil23" points="2548,3288 2560,3288 2560,2716 2548,2716 "/>
  <polygon class="fil23" points="2560,3288 2571,3288 2571,2716 2560,2716 "/>
  <polygon class="fil24" points="2571,3288 2583,3288 2583,2716 2571,2716 "/>
  <polygon class="fil24" points="2583,3288 2594,3288 2594,2716 2583,2716 "/>
  <polygon class="fil24" points="2594,3288 2605,3288 2605,2716 2594,2716 "/>
  <polygon class="fil24" points="2605,3288 2617,3288 2617,2716 2605,2716 "/>
  <polygon class="fil25" points="2617,3288 2628,3288 2628,2716 2617,2716 "/>
  <polygon class="fil25" points="2628,3288 2640,3288 2640,2716 2628,2716 "/>
  <polygon class="fil25" points="2640,3288 2651,3288 2651,2716 2640,2716 "/>
  <polygon class="fil25" points="2651,3288 2663,3288 2663,2716 2651,2716 "/>
  <polygon class="fil25" points="2663,3288 2674,3288 2674,2716 2663,2716 "/>
  <polygon class="fil25" points="2674,3288 2685,3288 2685,2716 2674,2716 "/>
  <polygon class="fil26" points="2685,3288 2697,3288 2697,2716 2685,2716 "/>
  <polygon class="fil26" points="2697,3288 2708,3288 2708,2716 2697,2716 "/>
  <polygon class="fil26" points="2708,3288 2720,3288 2720,2716 2708,2716 "/>
  <polygon class="fil26" points="2720,3288 2731,3288 2731,2716 2720,2716 "/>
  <polygon class="fil26" points="2731,3288 2743,3288 2743,2716 2731,2716 "/>
  <polygon class="fil26" points="2743,3288 2754,3288 2754,2716 2743,2716 "/>
  <polygon class="fil26" points="2754,3288 2765,3288 2765,2716 2754,2716 "/>
  <polygon class="fil26" points="2765,3288 2777,3288 2777,2716 2765,2716 "/>
  <polygon class="fil26" points="2777,3288 2788,3288 2788,2716 2777,2716 "/>
  <polygon class="fil26" points="2788,3288 2800,3288 2800,2716 2788,2716 "/>
  <polygon class="fil26" points="2800,3288 2811,3288 2811,2716 2800,2716 "/>
  <polygon class="fil26" points="2811,3288 2823,3288 2823,2716 2811,2716 "/>
  <polygon class="fil26" points="2823,3288 2834,3288 2834,2716 2823,2716 "/>
  <polygon class="fil26" points="2834,3288 2845,3288 2845,2716 2834,2716 "/>
  <polygon class="fil26" points="2845,3288 2857,3288 2857,2716 2845,2716 "/>
  <polygon class="fil26" points="2857,3288 2868,3288 2868,2716 2857,2716 "/>
  <polygon class="fil26" points="2868,3288 2880,3288 2880,2716 2868,2716 "/>
  <polygon class="fil27" points="2880,3288 2891,3288 2891,2716 2880,2716 "/>
  <polygon class="fil27" points="2891,3288 2903,3288 2903,2716 2891,2716 "/>
  <polygon class="fil27" points="2903,3288 2914,3288 2914,2716 2903,2716 "/>
  <polygon class="fil27" points="2914,3288 2925,3288 2925,2716 2914,2716 "/>
  <polygon class="fil27" points="2925,3288 2937,3288 2937,2716 2925,2716 "/>
  <polygon class="fil27" points="2937,3288 2948,3288 2948,2716 2937,2716 "/>
  <polygon class="fil27" points="2948,3288 2960,3288 2960,2716 2948,2716 "/>
  <polygon class="fil27" points="2960,3288 2971,3288 2971,2716 2960,2716 "/>
  <polygon class="fil27" points="2971,3288 2983,3288 2983,2716 2971,2716 "/>
  <polygon class="fil27" points="2983,3288 2994,3288 2994,2716 2983,2716 "/>
  <polygon class="fil27" points="2994,3288 3005,3288 3005,2716 2994,2716 "/>
  <polygon class="fil27" points="3005,3288 3017,3288 3017,2716 3005,2716 "/>
  <polygon class="fil27" points="3017,3288 3028,3288 3028,2716 3017,2716 "/>
  <polygon class="fil27" points="3028,3288 3040,3288 3040,2716 3028,2716 "/>
  <polygon class="fil27" points="3040,3288 3051,3288 3051,2716 3040,2716 "/>
  <polygon class="fil27" points="3051,3288 3063,3288 3063,2716 3051,2716 "/>
  <polygon class="fil27" points="3063,3288 3074,3288 3074,2716 3063,2716 "/>
  <polygon class="fil27" points="3074,3288 3085,3288 3085,2716 3074,2716 "/>
  <polygon class="fil27" points="3085,3288 3097,3288 3097,2716 3085,2716 "/>
  <polygon class="fil27" points="3097,3288 3108,3288 3108,2716 3097,2716 "/>
  <polygon class="fil27" points="3108,3288 3120,3288 3120,2716 3108,2716 "/>
  <polygon class="fil27" points="3120,3288 3131,3288 3131,2716 3120,2716 "/>
  <polygon class="fil28" points="3131,3288 3143,3288 3143,2716 3131,2716 "/>
  <polygon class="fil28" points="3143,3288 3154,3288 3154,2716 3143,2716 "/>
  <polygon class="fil28" points="3154,3288 3166,3288 3166,2716 3154,2716 "/>
  <polygon class="fil28" points="3166,3288 3177,3288 3177,2716 3166,2716 "/>
  <polygon class="fil28" points="3177,3288 3188,3288 3188,2716 3177,2716 "/>
  <polygon class="fil28" points="3188,3288 3200,3288 3200,2716 3188,2716 "/>
  <polygon class="fil28" points="3200,3288 3211,3288 3211,2716 3200,2716 "/>
  <polygon class="fil28" points="3211,3288 3223,3288 3223,2716 3211,2716 "/>
  <polygon class="fil28" points="3223,3288 3234,3288 3234,2716 3223,2716 "/>
  <polygon class="fil28" points="3234,3288 3246,3288 3246,2716 3234,2716 "/>
  <polygon class="fil28" points="3246,3288 3257,3288 3257,2716 3246,2716 "/>
  <polygon class="fil28" points="3257,3288 3268,3288 3268,2716 3257,2716 "/>
  <polygon class="fil28" points="3268,3288 3280,3288 3280,2716 3268,2716 "/>
  <polygon class="fil28" points="3280,3288 3291,3288 3291,2716 3280,2716 "/>
  <polygon class="fil28" points="3291,3288 3303,3288 3303,2716 3291,2716 "/>
  <polygon class="fil28" points="3303,3288 3314,3288 3314,2716 3303,2716 "/>
  <polygon class="fil29" points="3314,3288 3326,3288 3326,2716 3314,2716 "/>
  <polygon class="fil29" points="3326,3288 3337,3288 3337,2716 3326,2716 "/>
  <polygon class="fil29" points="3337,3288 3348,3288 3348,2716 3337,2716 "/>
  <polygon class="fil30" points="3348,3288 3360,3288 3360,2716 3348,2716 "/>
  <polygon class="fil30" points="3360,3288 3371,3288 3371,2716 3360,2716 "/>
  <polygon class="fil30" points="3371,3288 3383,3288 3383,2716 3371,2716 "/>
  <polygon class="fil30" points="3383,3288 3394,3288 3394,2716 3383,2716 "/>
  <polygon class="fil30" points="3394,3288 3406,3288 3406,2716 3394,2716 "/>
  <polygon class="fil30" points="3406,3288 3417,3288 3417,2716 3406,2716 "/>
  <polygon class="fil30" points="3417,3288 3428,3288 3428,2716 3417,2716 "/>
  <polygon class="fil30" points="3428,3288 3440,3288 3440,2716 3428,2716 "/>
  <polygon class="fil30" points="3440,3288 3451,3288 3451,2716 3440,2716 "/>
  <polygon class="fil30" points="3451,3288 3463,3288 3463,2716 3451,2716 "/>
  <polygon class="fil30" points="3463,3288 3474,3288 3474,2716 3463,2716 "/>
  <polygon class="fil30" points="3474,3288 3486,3288 3486,2716 3474,2716 "/>
  <polygon class="fil30" points="3486,3288 3497,3288 3497,2716 3486,2716 "/>
  <polygon class="fil30" points="3497,3288 3508,3288 3508,2716 3497,2716 "/>
  <polygon class="fil30" points="3508,3288 3520,3288 3520,2716 3508,2716 "/>
  <polygon class="fil30" points="3520,3288 3531,3288 3531,2716 3520,2716 "/>
  <polygon class="fil30" points="3531,3288 3543,3288 3543,2716 3531,2716 "/>
  <polygon class="fil30" points="3543,3288 3554,3288 3554,2716 3543,2716 "/>
  <polygon class="fil30" points="3554,3288 3566,3288 3566,2716 3554,2716 "/>
  <polygon class="fil30" points="3566,3288 3577,3288 3577,2716 3566,2716 "/>
  <polygon class="fil30" points="3577,3288 3588,3288 3588,2716 3577,2716 "/>
  <polygon class="fil30" points="3588,3288 3600,3288 3600,2716 3588,2716 "/>
  <polygon class="fil30" points="3600,3288 3611,3288 3611,2716 3600,2716 "/>
  <polygon class="fil30" points="3611,3288 3623,3288 3623,2716 3611,2716 "/>
  <polygon class="fil30" points="3623,3288 3634,3288 3634,2716 3623,2716 "/>
  <polygon class="fil30" points="3634,3288 3646,3288 3646,2716 3634,2716 "/>
  <polygon class="fil31" points="3646,3288 3657,3288 3657,2716 3646,2716 "/>
  <polygon class="fil31" points="3657,3288 3668,3288 3668,2716 3657,2716 "/>
  <polygon class="fil31" points="3668,3288 3680,3288 3680,2716 3668,2716 "/>
  <polygon class="fil31" points="3680,3288 3691,3288 3691,2716 3680,2716 "/>
  <polygon class="fil31" points="3691,3288 3703,3288 3703,2716 3691,2716 "/>
  <polygon class="fil31" points="3703,3288 3714,3288 3714,2716 3703,2716 "/>
  <polygon class="fil31" points="3714,3288 3726,3288 3726,2716 3714,2716 "/>
  <polygon class="fil32" points="3726,3288 3737,3288 3737,2716 3726,2716 "/>
  <polygon class="fil32" points="3737,3288 3738,3288 3738,2716 3737,2716 "/>
 </g>
</svg>
