<?xml version="1.0" encoding="UTF-8"?>
<!DOCTYPE svg PUBLIC "-//W3C//DTD SVG 1.1//EN" "http://www.w3.org/Graphics/SVG/1.1/DTD/svg11.dtd">
<!-- Creator: CorelDRAW X6 -->
<svg xmlns="http://www.w3.org/2000/svg" xml:space="preserve" width="4.45833in" height="8.30555in" version="1.1" style="shape-rendering:geometricPrecision; text-rendering:geometricPrecision; image-rendering:optimizeQuality; fill-rule:evenodd; clip-rule:evenodd"
viewBox="0 0 4458 8306"
 xmlns:xlink="http://www.w3.org/1999/xlink">
 <defs>
  <style type="text/css">
   <![CDATA[
    .str1 {stroke:#267ABD;stroke-width:1.30315}
    .str0 {stroke:#E93D3F;stroke-width:1.30315}
    .fil1 {fill:none;fill-rule:nonzero}
    .fil2 {fill:#267ABD;fill-rule:nonzero}
    .fil0 {fill:#E93D3F;fill-rule:nonzero}
   ]]>
  </style>
 </defs>
 <g id="Layer_x0020_1">
  <metadata id="CorelCorpID_0Corel-Layer"/>
  <path class="fil0" d="M2805 -11c131,149 174,361 136,553 -40,215 -160,406 -300,569 -113,132 -242,249 -376,357 -157,126 -311,263 -410,440 -83,144 -103,322 -46,479 93,269 310,469 428,724 -131,-115 -258,-235 -378,-361 -125,-133 -243,-275 -321,-442 -53,-117 -76,-253 -36,-376 40,-126 131,-228 221,-322 251,-251 561,-436 807,-692 136,-140 249,-308 287,-501 32,-142 17,-288 -12,-428l0 0z"/>
  <path class="fil1 str0" d="M2805 -11c131,149 174,361 136,553 -40,215 -160,406 -300,569 -113,132 -242,249 -376,357 -157,126 -311,263 -410,440 -83,144 -103,322 -46,479 93,269 310,469 428,724 -131,-115 -258,-235 -378,-361 -125,-133 -243,-275 -321,-442 -53,-117 -76,-253 -36,-376 40,-126 131,-228 221,-322 251,-251 561,-436 807,-692 136,-140 249,-308 287,-501 32,-142 17,-288 -12,-428l0 0z"/>
  <path class="fil0" d="M2600 1571c269,-199 585,-325 904,-417 -253,161 -517,308 -735,515 -79,76 -154,164 -189,271 -26,79 -15,167 17,242 58,133 157,242 232,364 64,104 75,238 26,350 -74,165 -218,286 -368,382 -19,11 -36,32 -60,35 100,-90 178,-218 175,-356 -3,-103 -60,-193 -126,-267 -138,-164 -253,-372 -229,-593 24,-221 182,-399 353,-526l0 0z"/>
  <path class="fil1 str0" d="M2600 1571c269,-199 585,-325 904,-417 -253,161 -517,308 -735,515 -79,76 -154,164 -189,271 -26,79 -15,167 17,242 58,133 157,242 232,364 64,104 75,238 26,350 -74,165 -218,286 -368,382 -19,11 -36,32 -60,35 100,-90 178,-218 175,-356 -3,-103 -60,-193 -126,-267 -138,-164 -253,-372 -229,-593 24,-221 182,-399 353,-526l0 0z"/>
  <path class="fil2" d="M3555 3177c58,-71 151,-89 236,-100 147,-19 304,18 415,119 92,82 143,210 124,333 -21,143 -117,263 -225,353 -196,157 -438,249 -679,310 14,-15 29,-29 47,-40 183,-99 365,-214 500,-375 82,-100 146,-231 119,-363 -28,-153 -176,-264 -328,-272 -72,-7 -140,21 -210,35l0 0z"/>
  <path class="fil1 str1" d="M3555 3177c58,-71 151,-89 236,-100 147,-19 304,18 415,119 92,82 143,210 124,333 -21,143 -117,263 -225,353 -196,157 -438,249 -679,310 14,-15 29,-29 47,-40 183,-99 365,-214 500,-375 82,-100 146,-231 119,-363 -28,-153 -176,-264 -328,-272 -72,-7 -140,21 -210,35l0 0z"/>
  <path class="fil2" d="M764 3303c256,-110 533,-181 813,-176 -163,47 -329,88 -482,160 -36,19 -78,38 -99,75 -11,29 19,49 42,58 94,39 199,44 300,54 356,24 713,10 1067,-13 350,-22 697,-69 1043,-125 -76,36 -154,72 -225,118 -36,25 -81,32 -121,42 -425,94 -861,124 -1294,131 -168,1 -335,-1 -501,-13 -186,-13 -374,-26 -556,-75 -53,-15 -108,-32 -150,-69 -21,-17 -21,-50 -3,-69 46,-47 110,-69 167,-97l0 0z"/>
  <path class="fil1 str1" d="M764 3303c256,-110 533,-181 813,-176 -163,47 -329,88 -482,160 -36,19 -78,38 -99,75 -11,29 19,49 42,58 94,39 199,44 300,54 356,24 713,10 1067,-13 350,-22 697,-69 1043,-125 -76,36 -154,72 -225,118 -36,25 -81,32 -121,42 -425,94 -861,124 -1294,131 -168,1 -335,-1 -501,-13 -186,-13 -374,-26 -556,-75 -53,-15 -108,-32 -150,-69 -21,-17 -21,-50 -3,-69 46,-47 110,-69 167,-97l0 0z"/>
  <path class="fil2" d="M1091 3896c72,-57 158,-89 244,-119 -28,33 -67,65 -69,111 -1,29 22,51 46,65 46,24 97,32 149,39 267,28 536,43 806,25 246,-13 490,-53 733,-96 67,63 146,106 229,143 -293,86 -594,136 -897,160 -286,19 -576,18 -861,-28 -113,-21 -228,-44 -331,-97 -42,-22 -89,-51 -101,-100 -8,-42 22,-79 53,-103l0 0z"/>
  <path class="fil1 str1" d="M1091 3896c72,-57 158,-89 244,-119 -28,33 -67,65 -69,111 -1,29 22,51 46,65 46,24 97,32 149,39 267,28 536,43 806,25 246,-13 490,-53 733,-96 67,63 146,106 229,143 -293,86 -594,136 -897,160 -286,19 -576,18 -861,-28 -113,-21 -228,-44 -331,-97 -42,-22 -89,-51 -101,-100 -8,-42 22,-79 53,-103l0 0z"/>
  <path class="fil2" d="M1252 4502c64,-51 143,-78 221,-100 -25,24 -69,53 -50,93 38,49 107,54 163,67 235,29 472,49 707,31 178,-11 353,-43 526,-74 100,58 204,108 311,153 -164,74 -340,121 -517,154 -297,53 -604,60 -903,13 -132,-24 -267,-54 -386,-119 -46,-26 -94,-57 -114,-108 -15,-40 10,-83 42,-108l0 0z"/>
  <path class="fil1 str1" d="M1252 4502c64,-51 143,-78 221,-100 -25,24 -69,53 -50,93 38,49 107,54 163,67 235,29 472,49 707,31 178,-11 353,-43 526,-74 100,58 204,108 311,153 -164,74 -340,121 -517,154 -297,53 -604,60 -903,13 -132,-24 -267,-54 -386,-119 -46,-26 -94,-57 -114,-108 -15,-40 10,-83 42,-108l0 0z"/>
  <path class="fil2" d="M482 4895c128,-43 260,-78 394,-82 54,-1 110,1 157,29 -161,10 -322,50 -467,124 -32,18 -68,39 -81,76 0,43 49,57 81,71 201,75 417,99 628,121 629,53 1262,39 1892,-18 237,-26 476,-53 707,-118 74,-25 157,-50 206,-115 29,-39 10,-87 -19,-121 47,26 114,60 104,124 -18,67 -86,101 -142,133 -178,90 -374,136 -568,176 -565,111 -1144,136 -1719,119 -433,-15 -867,-57 -1294,-131 -76,-18 -162,-33 -218,-93 -36,-42 -4,-100 31,-131 88,-81 200,-125 310,-165l0 0z"/>
  <path class="fil1 str1" d="M482 4895c128,-43 260,-78 394,-82 54,-1 110,1 157,29 -161,10 -322,50 -467,124 -32,18 -68,39 -81,76 0,43 49,57 81,71 201,75 417,99 628,121 629,53 1262,39 1892,-18 237,-26 476,-53 707,-118 74,-25 157,-50 206,-115 29,-39 10,-87 -19,-121 47,26 114,60 104,124 -18,67 -86,101 -142,133 -178,90 -374,136 -568,176 -565,111 -1144,136 -1719,119 -433,-15 -867,-57 -1294,-131 -76,-18 -162,-33 -218,-93 -36,-42 -4,-100 31,-131 88,-81 200,-125 310,-165l0 0z"/>
  <path class="fil2" d="M3943 5370c140,-49 290,-100 394,-211 -18,121 -122,204 -225,258 -197,103 -418,150 -637,189 -464,74 -935,92 -1406,83 -321,-10 -644,-22 -960,-89 -75,-21 -156,-35 -221,-79 281,47 565,67 850,78 468,14 938,-4 1403,-63 269,-37 540,-83 801,-167l0 0z"/>
  <path class="fil1 str1" d="M3943 5370c140,-49 290,-100 394,-211 -18,121 -122,204 -225,258 -197,103 -418,150 -637,189 -464,74 -935,92 -1406,83 -321,-10 -644,-22 -960,-89 -75,-21 -156,-35 -221,-79 281,47 565,67 850,78 468,14 938,-4 1403,-63 269,-37 540,-83 801,-167l0 0z"/>
  <path class="fil0" d="M283 7430c1,-456 -1,-911 1,-1368 94,3 189,0 283,3 -1,510 0,1021 -1,1532 -3,143 -6,293 -75,421 -76,136 -212,232 -357,288 -46,-50 -88,-103 -133,-153l0 0c117,-68 233,-165 261,-306 26,-138 18,-278 21,-417l0 0z"/>
  <path class="fil1 str0" d="M283 7430c1,-456 -1,-911 1,-1368 94,3 189,0 283,3 -1,510 0,1021 -1,1532 -3,143 -6,293 -75,421 -76,136 -212,232 -357,288 -46,-50 -88,-103 -133,-153l0 0c117,-68 233,-165 261,-306 26,-138 18,-278 21,-417l0 0z"/>
  <path class="fil0" d="M1175 7255c-61,19 -118,64 -135,128 -19,71 -14,154 32,214 44,58 125,72 194,64 97,-11 182,-67 257,-126 0,-104 -1,-207 0,-311 -117,0 -236,-7 -349,32l0 0zm-344 -644c188,-81 396,-122 600,-100 106,13 215,51 283,136 57,72 78,165 76,256 0,311 0,621 0,932 -69,0 -139,0 -210,0 -7,-46 -14,-93 -19,-140 -79,63 -164,122 -263,147 -113,29 -236,26 -346,-17 -85,-35 -151,-111 -175,-200 -35,-129 -17,-281 75,-385 82,-96 206,-143 328,-165 113,-22 228,-22 343,-22 -3,-87 14,-183 -36,-261 -40,-60 -114,-83 -182,-88 -149,-13 -296,25 -436,74 -14,-56 -26,-111 -39,-167z"/>
  <path class="fil1 str0" d="M1175 7255c-61,19 -118,64 -135,128 -19,71 -14,154 32,214 44,58 125,72 194,64 97,-11 182,-67 257,-126 0,-104 -1,-207 0,-311 -117,0 -236,-7 -349,32l0 0zm-344 -644c188,-81 396,-122 600,-100 106,13 215,51 283,136 57,72 78,165 76,256 0,311 0,621 0,932 -69,0 -139,0 -210,0 -7,-46 -14,-93 -19,-140 -79,63 -164,122 -263,147 -113,29 -236,26 -346,-17 -85,-35 -151,-111 -175,-200 -35,-129 -17,-281 75,-385 82,-96 206,-143 328,-165 113,-22 228,-22 343,-22 -3,-87 14,-183 -36,-261 -40,-60 -114,-83 -182,-88 -149,-13 -296,25 -436,74 -14,-56 -26,-111 -39,-167z"/>
  <path class="fil0" d="M3612 7256c-58,19 -112,64 -131,125 -19,71 -14,154 31,215 46,60 128,72 199,64 96,-14 183,-67 256,-131 -3,-101 -1,-204 -1,-307 -118,0 -239,-7 -353,33l0 0zm-340 -646c189,-81 397,-124 603,-100 103,13 208,50 276,131 64,76 83,178 82,275 -1,307 1,613 -3,919 -69,-3 -139,1 -208,-3 -7,-47 -13,-93 -21,-139 -97,83 -214,151 -346,162 -121,11 -257,-4 -351,-90 -99,-92 -115,-240 -90,-367 24,-117 111,-212 217,-264 165,-81 354,-85 535,-83 -3,-85 12,-175 -31,-251 -33,-61 -104,-89 -171,-96 -154,-17 -308,22 -453,72 -12,-56 -26,-111 -39,-167z"/>
  <path class="fil1 str0" d="M3612 7256c-58,19 -112,64 -131,125 -19,71 -14,154 31,215 46,60 128,72 199,64 96,-14 183,-67 256,-131 -3,-101 -1,-204 -1,-307 -118,0 -239,-7 -353,33l0 0zm-340 -646c189,-81 397,-124 603,-100 103,13 208,50 276,131 64,76 83,178 82,275 -1,307 1,613 -3,919 -69,-3 -139,1 -208,-3 -7,-47 -13,-93 -21,-139 -97,83 -214,151 -346,162 -121,11 -257,-4 -351,-90 -99,-92 -115,-240 -90,-367 24,-117 111,-212 217,-264 165,-81 354,-85 535,-83 -3,-85 12,-175 -31,-251 -33,-61 -104,-89 -171,-96 -154,-17 -308,22 -453,72 -12,-56 -26,-111 -39,-167z"/>
  <path class="fil0" d="M1948 6527c97,0 194,0 292,0 57,183 112,365 169,549 33,113 75,224 99,339 13,51 24,104 39,154 119,-338 211,-686 258,-1042 94,0 189,0 283,0 -82,450 -211,893 -406,1307 -111,0 -222,0 -333,0 -133,-436 -268,-871 -401,-1307l0 0z"/>
  <path class="fil1 str0" d="M1948 6527c97,0 194,0 292,0 57,183 112,365 169,549 33,113 75,224 99,339 13,51 24,104 39,154 119,-338 211,-686 258,-1042 94,0 189,0 283,0 -82,450 -211,893 -406,1307 -111,0 -222,0 -333,0 -133,-436 -268,-871 -401,-1307l0 0z"/>
  <polygon class="fil0" points="4288,6502 4254,6502 4254,6489 4337,6489 4337,6502 4303,6502 4303,6602 4288,6602 "/>
  <polygon class="fil1 str0" points="4288,6502 4254,6502 4254,6489 4337,6489 4337,6502 4303,6502 4303,6602 4288,6602 "/>
  <path class="fil0" d="M4445 6552c-1,-16 -2,-35 -2,-48l0 0c-4,13 -9,27 -14,43l-20 54 -11 0 -18 -53c-5,-16 -10,-30 -13,-44l0 0c0,14 -1,33 -2,50l-3 48 -14 0 8 -112 18 0 19 54c5,14 8,26 11,38l0 0c3,-11 7,-24 12,-38l20 -54 18 0 7 112 -14 0 -3 -49z"/>
  <path class="fil1 str0" d="M4445 6552c-1,-16 -2,-35 -2,-48l0 0c-4,13 -9,27 -14,43l-20 54 -11 0 -18 -53c-5,-16 -10,-30 -13,-44l0 0c0,14 -1,33 -2,50l-3 48 -14 0 8 -112 18 0 19 54c5,14 8,26 11,38l0 0c3,-11 7,-24 12,-38l20 -54 18 0 7 112 -14 0 -3 -49z"/>
 </g>
</svg>
